<svg width="1756" height="1755" viewBox="0 0 1756 1755" fill="black" xmlns="http://www.w3.org/2000/svg">
<rect width="1756" height="1755" fill="white"/>
<path d="M618.454 1072.05V893.757H668.487V1072.05C669.678 1098.12 686.624 1150.25 744.876 1150.25C803.129 1150.25 820.67 1098.12 822.16 1072.05V893.757H873.533V1072.05C874.277 1113.91 849.946 1197.62 746.663 1197.62C643.381 1197.62 618.156 1113.91 618.454 1072.05Z" fill="#333333"/>
<path d="M878 93L1662 876.777L1425.24 1113.61H1346.61L1583.38 876.777L878 171.199L492.477 556.831H799.377V765.064C799.377 823.154 758.278 860.69 701.991 860.69C656.961 860.69 625.154 835.07 614.88 822.261L644.364 783.832C649.277 793.066 667.682 811.536 701.991 811.536C736.299 811.536 747.259 780.555 748.45 765.064V602.12H368.735L878 93Z" fill="#333333"/>
<path d="M877.107 556.831V735.125C876.809 776.98 902.034 860.69 1005.32 860.69C1108.6 860.69 1132.93 776.98 1132.19 735.125V556.831H1080.81V735.125C1079.32 761.191 1061.78 813.324 1003.53 813.324C945.277 813.324 928.331 761.191 927.14 735.125V556.831H877.107Z" fill="#333333"/>
<path d="M878 1661L94 876.777L344.308 626.54H423.682L173.517 876.777L878 1581.46L1266.65 1192.7H953.496V893.757H1003.53V1145.33H1393.52L878 1661Z" fill="#333333"/>
</svg>
