<svg width="1568" height="1568" viewBox="0 0 1568 1568" fill="none" xmlns="http://www.w3.org/2000/svg">
<path d="M524.454 979.05V800.757H574.487V979.05C575.678 1005.12 592.624 1057.25 650.876 1057.25C709.129 1057.25 726.67 1005.12 728.16 979.05V800.757H779.533V979.05C780.277 1020.91 755.946 1104.62 652.663 1104.62C549.381 1104.62 524.156 1020.91 524.454 979.05Z" fill="#333333"/>
<path d="M784 0L1568 783.777L1331.24 1020.61H1252.61L1489.38 783.777L784 78.1989L398.477 463.831H705.377V672.064C705.377 730.154 664.278 767.69 607.991 767.69C562.961 767.69 531.154 742.07 520.88 729.261L550.364 690.832C555.277 700.067 573.682 718.536 607.991 718.536C642.299 718.536 653.259 687.555 654.45 672.064V509.12H274.735L784 0Z" fill="#333333"/>
<path d="M783.107 463.831V642.125C782.809 683.98 808.034 767.69 911.316 767.69C1014.6 767.69 1038.93 683.98 1038.19 642.125V463.831H986.812V642.125C985.323 668.191 967.782 720.324 909.529 720.324C851.277 720.324 834.331 668.191 833.14 642.125V463.831H783.107Z" fill="#333333"/>
<path d="M784 1568L0 783.777L250.308 533.54H329.682L79.5168 783.777L784 1488.46L1172.65 1099.7H859.496V800.757H909.529V1052.33H1299.52L784 1568Z" fill="#333333"/>
</svg>
